<?xml version="1.0" encoding="UTF-8" standalone="no"?>
<!DOCTYPE svg PUBLIC "-//W3C//DTD SVG 1.1//EN" "http://www.w3.org/Graphics/SVG/1.1/DTD/svg11.dtd">
<svg width="100%" height="100%" viewBox="0 0 3840 2160" version="1.1" xmlns="http://www.w3.org/2000/svg" xmlns:xlink="http://www.w3.org/1999/xlink" xml:space="preserve" xmlns:serif="http://www.serif.com/" style="fill-rule:evenodd;clip-rule:evenodd;stroke-linejoin:round;stroke-miterlimit:2;">
    <g transform="matrix(1,0,0,1,-309.892,390)">
        <path d="M2977,1057.6C2327.92,1064 2133.6,1360.98 1728,1272C1201.89,1156.59 457.56,639.881 232,990.597C-369.626,1926.05 -178.32,1878.76 -493,2074C-807.68,2269.24 -386.753,1610.3 -268,2078C-149.247,2545.7 3570.35,2668.83 4147,2670C4723.65,2671.17 4397.99,1063.17 4092,1303.07C3850.23,1492.62 3447.75,1052.95 2977,1057.6Z" style="fill:rgb(73,255,210);"/>
    </g>
    <g transform="matrix(1,0,0,1,941,491.843)">
        <path d="M-1531,1138.48C-863.052,1388.27 -149.398,977.951 645.515,969.754C1418.3,961.786 2391.16,1601.32 2850,1093.48C3456.75,421.911 4488.98,1943.89 4402,2228C4222.8,2813.35 3948,2552 3948,2552L-856,2368C-856,2368 -2405.92,811.281 -1531,1138.48Z" style="fill:rgb(0,232,174);"/>
    </g>
    <g transform="matrix(1,0,0,1,230,483)">
        <path d="M-230,897.597C140.711,1029.19 977.837,1286.49 1696,1082.97C2534.17,845.441 3105.65,1692.05 3746,1485.97C3785.35,1473.3 3610,1681.04 3610,1681.04L-230,1681.04L-230,897.597Z" style="fill:rgb(0,200,150);"/>
    </g>
</svg>
