<svg width="100%" height="100%" viewBox="0 0 125 125" version="1.1" xmlns="http://www.w3.org/2000/svg" xmlns:xlink="http://www.w3.org/1999/xlink" xml:space="preserve" xmlns:serif="http://www.serif.com/" style="fill-rule:evenodd;clip-rule:evenodd;stroke-linecap:round;stroke-linejoin:round;stroke-miterlimit:1.5;"><g><path d="M112.5,36.147c0,-2.121 -1.108,-4.155 -3.08,-5.655c-1.973,-1.499 -4.648,-2.342 -7.437,-2.342c-19.21,0 -59.756,0 -78.966,0c-2.789,0 -5.464,0.843 -7.437,2.342c-1.972,1.5 -3.08,3.534 -3.08,5.655c0,18.074 0,61.899 0,79.973c-0,2.121 1.108,4.155 3.08,5.655c1.973,1.5 4.648,2.343 7.437,2.343c19.21,-0 59.756,-0 78.966,-0c2.789,-0 5.464,-0.843 7.437,-2.343c1.972,-1.5 3.08,-3.534 3.08,-5.655c-0,-18.074 -0,-61.899 -0,-79.973Zm-44.741,7.998c-0,-2.207 -2.357,-3.999 -5.259,-3.999c-2.902,-0 -5.259,1.792 -5.259,3.999l0,59.979c0,2.207 2.357,3.999 5.259,3.999c2.902,-0 5.259,-1.792 5.259,-3.999l-0,-59.979Zm-26.294,7.997c0,-2.207 -2.356,-3.999 -5.258,-3.999c-2.903,0 -5.259,1.792 -5.259,3.999l-0,43.985c-0,2.207 2.356,3.999 5.259,3.999c2.902,-0 5.258,-1.792 5.258,-3.999l0,-43.985Zm52.587,-0c0,-2.207 -2.356,-3.999 -5.259,-3.999c-2.902,0 -5.258,1.792 -5.258,3.999l-0,43.985c-0,2.207 2.356,3.999 5.258,3.999c2.903,-0 5.259,-1.792 5.259,-3.999l0,-43.985Z"/></g><g><path d="M112.5,13.609l-100,0" style="fill:none;stroke:#000;stroke-width:12.5px;"/><path d="M79.386,9.442l-33.772,0" style="fill:none;stroke:#000;stroke-width:14.58px;"/></g></svg>